<?xml version="1.0" encoding="UTF-8" standalone="no"?>
<!DOCTYPE svg PUBLIC "-//W3C//DTD SVG 1.1//EN" "http://www.w3.org/Graphics/SVG/1.1/DTD/svg11.dtd">
<svg width="100%" height="100%" viewBox="0 0 825 600" version="1.1" xmlns="http://www.w3.org/2000/svg" xmlns:xlink="http://www.w3.org/1999/xlink" xml:space="preserve" xmlns:serif="http://www.serif.com/" style="fill-rule:evenodd;clip-rule:evenodd;stroke-linejoin:round;stroke-miterlimit:2;">
    <g transform="matrix(1,0,0,1,-2338.2,-141.939)">
        <g transform="matrix(0.983582,0,0,0.940145,1323.87,-834.541)">
            <path d="M1826.82,1357.96C1826.82,1172.08 1805.84,1121.8 1791.28,1104.43C1773.99,1083.8 1701.69,1059.71 1455.8,1059.71C1183.87,1059.71 1130.62,1087.06 1113.62,1104.43C1096.08,1122.36 1074.47,1173.9 1074.47,1357.96C1074.47,1542.02 1095.44,1600.16 1113.62,1618.15C1130.52,1634.88 1181.16,1655.78 1455.8,1655.78C1720.34,1655.78 1774.18,1636.18 1791.28,1618.15C1808.19,1600.32 1826.82,1543.84 1826.82,1357.96Z"/>
        </g>
        <g>
            <g transform="matrix(3.14025,0,0,5.14929,-346.431,-2111.19)">
                <path d="M926.77,459.88L945.073,459.88L945.073,515.806C945.073,520.142 943.275,523.886 939.679,527.038C936.083,530.189 928.595,531.764 923.586,531.764L911.598,531.764C906.588,531.764 899.101,530.197 895.504,527.061C891.908,523.925 890.11,520.174 890.11,515.806L890.11,459.88L908.413,459.88L908.413,515.806C908.413,517.958 908.671,519.823 910.46,521.398C912.249,522.974 914.338,523.762 917.592,523.762C920.845,523.762 922.934,522.974 924.723,521.398C926.512,519.823 926.77,517.958 926.77,515.806L926.77,459.88Z" style="fill:white;fill-rule:nonzero;"/>
            </g>
            <g transform="matrix(3.14025,0,0,5.14929,-346.431,-2111.19)">
                <path d="M963.376,531.764L963.376,459.88L981.679,459.88L981.679,491.844L1000.04,491.844L1000.04,459.88L1018.34,459.88L1018.34,531.764L1000.04,531.764L1000.04,499.8L981.679,499.8L981.679,531.764L963.376,531.764Z" style="fill:white;fill-rule:nonzero;"/>
            </g>
            <g transform="matrix(3.14025,0,0,5.14929,-346.431,-2111.19)">
                <path d="M1036.64,531.764L1036.64,459.88L1082.43,459.88L1082.43,467.883L1054.94,467.883L1054.94,491.844L1073.3,491.844L1073.3,499.8L1054.94,499.8L1054.94,531.764L1036.64,531.764Z" style="fill:white;fill-rule:nonzero;"/>
            </g>
        </g>
    </g>
</svg>
